<?xml version="1.0" encoding="utf-8"?>
<!-- Generator: Adobe Illustrator 19.1.0, SVG Export Plug-In . SVG Version: 6.00 Build 0)  -->
<svg version="1.1" id="Layer_1" xmlns="http://www.w3.org/2000/svg" xmlns:xlink="http://www.w3.org/1999/xlink" x="0px" y="0px"
	 viewBox="0 0 477.3 477.3" enable-background="new 0 0 477.3 477.3" xml:space="preserve">
<polygon points="476.7,199 459.3,236.9 477.3,274.5 449.1,305.1 454.6,346.5 418.2,366.9 410.7,407.9 369.8,416.1 350,452.8 
	308.6,448 278.4,476.7 240.5,459.3 202.9,477.3 172.2,449.1 130.9,454.6 110.4,418.2 69.4,410.7 61.2,369.8 24.5,350 29.4,308.6 
	0.6,278.4 18,240.5 0,202.9 28.2,172.2 22.7,130.9 59.1,110.4 66.6,69.4 107.5,61.2 127.3,24.5 168.8,29.4 199,0.6 236.9,18 
	274.5,0 305.1,28.2 346.5,22.7 366.9,59.1 407.9,66.6 416.1,107.5 452.8,127.3 448,168.8 "/>
</svg>
